<svg id="Capa_1" enable-background="new 0 0 512 512" height="512" viewBox="0 0 512 512" width="512" xmlns="http://www.w3.org/2000/svg"><g><path d="m422 512h-282c-12.407 0-22.5-10.093-22.5-22.5v-7.5h-7.5c-12.407 0-22.5-10.093-22.5-22.5v-27.5h-27.5c-4.142 0-7.5-3.358-7.5-7.5s3.358-7.5 7.5-7.5h27.5v-14.929c0-4.142 3.358-7.5 7.5-7.5s7.5 3.358 7.5 7.5v14.929h22.5c4.142 0 7.5 3.358 7.5 7.5s-3.358 7.5-7.5 7.5h-22.5v27.5c0 4.136 3.364 7.5 7.5 7.5h282c12.407 0 22.5-10.093 22.5-22.5v-299.997c0-4.142 3.358-7.5 7.5-7.5s7.5 3.358 7.5 7.5v299.997c0 20.678-16.822 37.5-37.5 37.5h-259.5v7.5c0 4.136 3.364 7.5 7.5 7.5h282c12.407 0 22.5-10.093 22.5-22.5v-119.997c0-4.142 3.358-7.5 7.5-7.5s7.5 3.358 7.5 7.5v119.997c0 20.678-16.822 37.5-37.5 37.5zm-297-132.429h-65c-4.142 0-7.5-3.358-7.5-7.5s3.358-7.5 7.5-7.5h27.5v-37.428h-27.5c-4.142 0-7.5-3.358-7.5-7.5s3.358-7.5 7.5-7.5h27.5v-37.429h-27.5c-4.142 0-7.5-3.358-7.5-7.5s3.358-7.5 7.5-7.5h27.5v-37.429h-27.5c-4.142 0-7.5-3.358-7.5-7.5s3.358-7.5 7.5-7.5h27.5v-37.429h-27.5c-4.142 0-7.5-3.358-7.5-7.5s3.358-7.5 7.5-7.5h27.5v-37.428h-27.5c-4.142 0-7.5-3.358-7.5-7.5s3.358-7.5 7.5-7.5h27.5v-37.428h-27.5c-4.142 0-7.5-3.358-7.5-7.5s3.358-7.5 7.5-7.5h27.5v-27.5c0-12.407 10.093-22.5 22.5-22.5h282c18.332 0 33.633 13.223 36.87 30.63 17.408 3.236 30.63 18.538 30.63 36.87v257.003c0 4.142-3.358 7.5-7.5 7.5s-7.5-3.358-7.5-7.5v-257.003c0-9.778-6.27-18.12-15-21.215v68.218c0 4.142-3.358 7.5-7.5 7.5s-7.5-3.358-7.5-7.5v-77.003c0-12.407-10.093-22.5-22.5-22.5h-282c-4.136 0-7.5 3.364-7.5 7.5v27.5h22.5c4.142 0 7.5 3.358 7.5 7.5s-3.358 7.5-7.5 7.5h-22.5v37.429h22.5c4.142 0 7.5 3.358 7.5 7.5s-3.358 7.5-7.5 7.5h-22.5v37.428h22.5c4.142 0 7.5 3.358 7.5 7.5s-3.358 7.5-7.5 7.5h-22.5v37.429h22.5c4.142 0 7.5 3.358 7.5 7.5s-3.358 7.5-7.5 7.5h-22.5v37.429h22.5c4.142 0 7.5 3.358 7.5 7.5s-3.358 7.5-7.5 7.5h-22.5v37.429h22.5c4.142 0 7.5 3.358 7.5 7.5s-3.358 7.5-7.5 7.5h-22.5v37.428h22.5c4.142 0 7.5 3.358 7.5 7.5s-3.358 7.499-7.5 7.499z"/></g></svg>